<svg width="272" height="170" viewBox="0 0 272 170" fill="none" xmlns="http://www.w3.org/2000/svg">
<path d="M48.7038 54.4L54.6037 54.3C57.0037 54.3 58.9038 50.6 58.8038 46.1L58.2038 8.10001C58.1038 3.60001 56.1038 0 53.7038 0L4.20376 0.800003C1.80376 0.800003 -0.0962262 4.5 0.00377381 9L0.603749 47C0.703749 51.5 2.70375 55.1 5.10375 55.1L10.9038 55C13.3038 55 15.3038 58.6 15.4038 63.1L16.2038 115.4C16.3038 119.9 18.3038 123.5 20.7038 123.5L41.2038 123.2C43.6038 123.2 45.5038 119.5 45.4038 115L44.6037 62.8C44.4037 58.1 46.3038 54.4 48.7038 54.4Z" fill="#F4BB47"/>
<path d="M129.704 6.6L105.704 4.99999C104.404 4.89999 103.204 6.8 103.004 9.2C101.904 26.3 100.804 43.3 99.6036 60.4C99.4036 63.5 99.0036 66.9 98.2036 69.7C97.7036 71.3 96.3036 72.9 95.2036 73.2C93.9036 73.6 92.6037 72.2 92.4037 69.4C92.3037 66.4 92.2036 63.3 92.3036 60.3C93.4036 43 94.5036 25.6 95.7036 8.29999C95.8036 6.19999 95.0037 4.5 93.9037 4.4L68.7036 2.79999C67.8036 2.69999 67.0037 4 66.9037 5.6C65.7037 24.3 64.4036 43 63.3036 61.8C62.7036 72.5 62.8037 83.2 64.4037 93.4C66.8037 108.6 72.2036 118.6 80.7036 122.8C87.7036 126.2 94.9036 127 102.204 124.3C114.104 119.9 121.904 106.6 125.704 85.5C126.904 78.5 127.804 71.2 128.304 64C129.604 46.4 130.604 28.8 131.804 11.3C132.104 8.79999 131.104 6.7 129.704 6.6Z" fill="#F4BB47"/>
<path d="M181.304 89.6C185.604 102.4 178.404 126.2 171.504 133.4C166.404 138.8 161.704 140.1 157.404 138.7C146.604 135.2 135.904 131.1 125.104 127.2C124.804 127.1 124.604 126.9 124.404 126.7C124.304 126.6 124.204 126.2 124.304 125.9L152.104 14.2C152.404 14.2 152.604 14.1 152.704 14.2C163.904 18.3 175.104 22.4 186.304 26.6C189.604 27.8 192.404 30.4 194.404 35.1C199.704 47.3 194.404 74.6 184.304 83.4C183.104 84.5 181.904 85.5 180.504 86.7C180.504 86.7 180.404 86.8 180.504 86.9C180.904 88 181.104 88.9 181.304 89.6ZM161.304 71.1C164.004 72.2 166.604 73.8 169.904 66.9C171.604 63.4 172.704 59 172.804 55C173.004 47.9 169.904 48.1 167.404 46.6C167.404 46.6 167.304 46.6 167.304 46.7L161.304 71C161.304 71.1 161.304 71.1 161.304 71.1ZM151.104 112C151.104 112.1 151.104 112.1 151.104 112.1C153.404 112.9 155.604 114.3 158.304 109.9C160.404 106.4 161.604 101.7 161.604 97.3C161.604 91.3 158.904 91.3 156.604 90.1C156.604 90.1 156.504 90.1 156.504 90.2L151.104 112Z" fill="#F4BB47"/>
<path d="M270.504 63.2L247.804 55.2C246.604 54.8 244.904 56.3 244.104 58.5C238.404 74.6 232.704 90.8 227.004 106.9C225.904 109.9 224.704 113 223.104 115.5C222.204 117 220.404 118 219.304 118C217.904 118 217.004 116.4 217.704 113.6C218.404 110.7 219.104 107.7 220.104 104.8C225.804 88.4 231.604 72 237.404 55.7C238.104 53.7 237.804 51.8 236.704 51.5L212.904 43.1C212.104 42.8 210.904 43.8 210.404 45.3C204.104 63 197.804 80.7 191.704 98.4C188.204 108.6 185.404 118.9 184.204 129.1C182.404 144.4 184.904 155.5 191.904 161.8C197.704 167 204.404 169.7 212.204 169.1C224.804 168.1 236.004 157.4 245.304 138.1C248.404 131.7 251.204 124.9 253.704 118.1C259.704 101.6 265.504 84.9 271.304 68.3C272.204 66 271.804 63.7 270.504 63.2Z" fill="#F4BB47"/>
</svg>
