<svg width="82" height="82" viewBox="0 0 82 82" fill="none" xmlns="http://www.w3.org/2000/svg">
<path d="M69.1 40.416V40.516C70.7 41.616 72.1 42.516 73.5 43.516C85.2 51.516 82.9 70.016 70.6 76.516C65.8 79.016 60.7 79.916 55.4 80.016C37.2 80.116 19.1 80.016 0.899994 80.016C0.699994 80.016 0.4 79.916 0 79.916V2.616C0 2.316 0.199994 2.116 0.399994 2.116C0.799994 2.016 1.19999 2.016 1.59999 2.016C19 2.016 36.4 1.916 53.8 2.216C60.7 2.316 67.2 4.316 72.7 8.916C80.2 15.116 82.2 31.916 71 39.016C70.5 39.316 69.9 39.816 69.1 40.416ZM34.5 46.116V62.916C34.5 62.916 34.5 63.016 34.6 63.016C38.8 62.616 43.3 63.516 45.7 58.916C47 56.416 47 53.316 45.8 50.716C43.5 45.516 39 46.016 34.5 46.116C34.5 46.016 34.5 46.016 34.5 46.116ZM34.5 32.716C34.5 32.816 34.5 32.816 34.5 32.716C38.4 32.616 42.4 33.216 44.7 29.416C46.4 26.616 46.4 23.416 44.5 20.716C42.1 17.316 38.3 17.716 34.6 17.616C34.6 17.616 34.5 17.616 34.5 17.716V32.716Z" fill="#5858E0"/>
</svg>
