<svg width="82" height="82" viewBox="0 0 82 82" fill="none" xmlns="http://www.w3.org/2000/svg">
<path d="M5.025 2H33.725C35.325 2 36.625 3.3 36.625 4.9C36.625 16.1 36.625 27.2 36.625 38.4C36.625 40.5 36.825 42.6 37.525 44.5C37.925 45.6 39.525 46.6 40.825 46.9C42.425 47.2 44.025 46.4 44.425 44.5C44.825 42.6 45.225 40.6 45.225 38.6C45.325 27.3 45.225 15.9 45.225 4.6C45.225 3.2 46.325 2.1 47.725 2.1H77.925C79.025 2.1 79.825 3 79.825 4C79.825 16.2 79.925 28.5 79.825 40.7C79.725 47.7 78.725 54.7 76.025 61.2C71.925 71 64.725 77.3 54.325 79.7C45.725 81.6 37.125 81.9 28.525 79.8C14.725 76.4 6.425 67.4 3.625 53.6C2.725 49 2.225 44.2 2.125 39.5C1.925 28 2.025 16.5 2.025 5C2.025 3.4 3.325 2 5.025 2Z" fill="#5858E0"/>
</svg>
