<svg width="336" height="81" viewBox="0 0 336 81" fill="none" xmlns="http://www.w3.org/2000/svg">
<path d="M83.7 0H112.4C114 0 115.3 1.3 115.3 2.9C115.3 14.1 115.3 25.2 115.3 36.4C115.3 38.5 115.5 40.6 116.2 42.5C116.6 43.6 118.2 44.6 119.5 44.9C121.1 45.2 122.7 44.4 123.1 42.5C123.5 40.6 123.9 38.6 123.9 36.6C124 25.3 123.9 13.9 123.9 2.6C123.9 1.2 125 0.0999985 126.4 0.0999985H156.6C157.7 0.0999985 158.5 1 158.5 2C158.5 14.2 158.6 26.5 158.5 38.7C158.4 45.7 157.4 52.7 154.7 59.2C150.6 69 143.4 75.3 133 77.7C124.4 79.6 115.8 79.9 107.2 77.8C93.4 74.4 85.1 65.4 82.3 51.6C81.4 47 80.9 42.2 80.8 37.5C80.6 26 80.7 14.5 80.7 3C80.7 1.4 82 0 83.7 0Z" fill="#5858E0"/>
<path d="M12.1 34.5H5.1C2.3 34.5 0 32.2 0 29.4V5.40002C0 2.60002 2.3 0.300018 5.1 0.300018H63.9C66.7 0.300018 69 2.60002 69 5.40002V29.4C69 32.2 66.7 34.5 63.9 34.5H57C54.2 34.5 51.9 36.8 51.9 39.6V72.7C51.9 75.5 49.6 77.8 46.8 77.8H22.4C19.6 77.8 17.3 75.5 17.3 72.7V39.6C17.2 36.8 14.9 34.5 12.1 34.5Z" fill="#5858E0"/>
<path d="M260.3 0.799988H290.8C291.9 0.799988 292.8 1.59998 292.8 2.69998C292.8 2.99998 292.8 3.29998 292.8 3.69998C292.8 14.9 292.8 26 292.8 37.2C292.8 39.3 293 41.4 293.7 43.3C294.1 44.4 295.7 45.4 297 45.7C298.6 46 300.2 45.2 300.6 43.3C301 41.4 301.4 39.4 301.4 37.4C301.5 26.1 301.4 14.7 301.4 3.39999V2.99998C301.4 1.89998 302.3 0.999985 303.4 0.999985H334C335.1 0.999985 335.9 1.89999 335.9 2.89999C335.9 15.1 336 27.4 335.9 39.6C335.8 46.6 334.8 53.6 332.1 60.1C328 69.9 320.8 76.2 310.4 78.6C301.8 80.5 293.2 80.8 284.6 78.7C270.8 75.3 262.5 66.3 259.7 52.5C258.8 47.9 258.3 43.1 258.2 38.4C258 26.9 258.1 15.4 258.1 3.89999V2.89999C258.3 1.69999 259.2 0.799988 260.3 0.799988Z" fill="#5858E0"/>
<path d="M238.9 39.1V39.2C240.5 40.3 241.9 41.2 243.3 42.2C255 50.2 252.7 68.7 240.4 75.2C235.6 77.7 230.5 78.6 225.2 78.7C207 78.8 188.9 78.7 170.7 78.7C170.5 78.7 170.2 78.6 169.8 78.6V1.29999C169.8 0.999995 170 0.799995 170.2 0.799995C170.6 0.699995 171 0.699989 171.4 0.699989C188.8 0.699989 206.2 0.599993 223.6 0.899993C230.5 0.999993 237 2.99999 242.5 7.59999C250 13.8 252 30.6 240.8 37.7C240.3 38 239.7 38.5 238.9 39.1ZM204.3 44.8V61.6C204.3 61.6 204.3 61.7 204.4 61.7C208.6 61.3 213.1 62.2 215.5 57.6C216.8 55.1 216.8 52 215.6 49.4C213.3 44.2 208.8 44.7 204.3 44.8C204.3 44.7 204.3 44.7 204.3 44.8ZM204.3 31.4C204.3 31.5 204.3 31.5 204.3 31.4C208.2 31.3 212.2 31.9 214.5 28.1C216.2 25.3 216.2 22.1 214.3 19.4C211.9 16 208.1 16.4 204.4 16.3C204.4 16.3 204.3 16.3 204.3 16.4V31.4Z" fill="#5858E0"/>
</svg>
